<?xml version="1.0" encoding="UTF-8"?>
<svg xmlns="http://www.w3.org/2000/svg" xmlns:xlink="http://www.w3.org/1999/xlink" width="104pt" height="104pt" viewBox="0 0 104 104" version="1.1">
<g id="surface12470751">
<path style=" stroke:none;fill-rule:nonzero;fill:rgb(100%,100%,100%);fill-opacity:1;" d="M 30.1875 0 C 13.5625 0 0 13.5625 0 30.1875 L 0 73.8125 C 0 90.4375 13.5625 104 30.1875 104 L 73.8125 104 C 90.4375 104 104 90.4375 104 73.8125 L 104 30.1875 C 104 13.5625 90.4375 0 73.8125 0 Z M 30.1875 8 L 73.8125 8 C 86.109375 8 96 17.875 96 30.1875 L 96 73.8125 C 96 86.109375 86.125 96 73.8125 96 L 30.1875 96 C 17.890625 96 8 86.125 8 73.8125 L 8 30.1875 C 8 17.890625 17.875 8 30.1875 8 Z M 82 16 C 78.6875 16 76 18.6875 76 22 C 76 25.3125 78.6875 28 82 28 C 85.3125 28 88 25.3125 88 22 C 88 18.6875 85.3125 16 82 16 Z M 52 24 C 36.578125 24 24 36.578125 24 52 C 24 67.421875 36.578125 80 52 80 C 67.421875 80 80 67.421875 80 52 C 80 36.578125 67.421875 24 52 24 Z M 52 32 C 63.09375 32 72 40.90625 72 52 C 72 63.09375 63.09375 72 52 72 C 40.90625 72 32 63.09375 32 52 C 32 40.90625 40.90625 32 52 32 Z M 52 32 "/>
</g>
</svg>
